<svg id="Layer_1" data-name="Layer 1" xmlns="http://www.w3.org/2000/svg" viewBox="0 0 536.39 684.05">
  <defs>
    <style>
      .cls-1 {
        fill: #ae0000;
      }
    </style>
  </defs>
  <title>logo-r</title>
  <g>
    <path class="cls-1" d="M698.5,890.4c-9.4-1.5-21.4-6.4-24.9-10.3-1.6-1.8-1.7-2.4-.6-5.1a10.49,10.49,0,0,1,2-3.5c.4-.3,3.4,1.1,6.5,3,8.4,5,15.5,6.9,26,6.9,7.6,0,9.8-.4,14-2.4,6.1-3,9.5-7.8,9.5-13.2,0-8.5-4.1-12.1-19-16.3-26.4-7.6-31.6-10.3-35.7-18.5-4.6-9-1.7-22.5,6-28.4,11-8.4,30.2-9.9,46.8-3.7a53.38,53.38,0,0,1,7.3,3.4c1.7,1.2,1.7,1.5,0,5.1-2,4.1-1.7,4.1-11.4,0-5.7-2.5-7.8-2.8-16.5-2.9-8.5,0-10.7.4-14.7,2.3-11.3,5.6-12.9,17.4-3.5,24.6,2.2,1.7,9,4.2,19.1,7,22.8,6.5,28.9,10.5,31.6,20.6,3.3,12.2-3.8,24.3-17.1,28.9-5.4,2-19.7,3.3-25.4,2.5Z" transform="translate(-324.01 -206.59)"/>
    <path class="cls-1" d="M400,843V796h11v94H400Z" transform="translate(-324.01 -206.59)"/>
    <path class="cls-1" d="M459,847.5V805H426v-9h76v9H469v85H459Z" transform="translate(-324.01 -206.59)"/>
    <path class="cls-1" d="M553,843V796h4.3l4.2.1L581,829.5c10.7,18.4,20,33.5,20.6,33.5s9.8-15.1,20.5-33.5L641.4,796H650v94H640V855.4c0-30.1-.2-34.5-1.5-34.2-.8.2-8.8,12.9-17.8,28.3-15.2,26-16.5,28-19.3,28.2s-3.4-.5-19.4-28.2c-9.1-15.6-17.1-28.5-17.7-28.5-1,0-1.3,7.6-1.3,34.5V890H553V843Z" transform="translate(-324.01 -206.59)"/>
    <path class="cls-1" d="M748.5,888.3c.3-1,9.9-22.2,21.3-47.1l20.7-45.3,5.4.3,5.4.3L822.5,843l21.2,46.5-4.5.3a24,24,0,0,1-5.7-.1c-.6-.3-3.6-6-6.5-12.6L821.6,865l-26,.2-26,.3-5.5,12.3L758.6,890h-5.4c-4.7,0-5.3-.2-4.7-1.7Zm67.5-34c0-3-18.8-43.8-20.2-44.1-1-.2-4.5,6.7-11.1,21.5-5.3,12-9.7,22.4-9.7,23.1,0,.9,4.8,1.2,20.5,1.2C814.4,856,816,855.9,816,854.3Z" transform="translate(-324.01 -206.59)"/>
    <path class="cls-1" d="M360.2,842.8l.3-46.3,4.8-.3,4.7-.3V889H360Z" transform="translate(-324.01 -206.59)"/>
    <path class="cls-1" d="M575.5,743.4c-49.1-3.7-95.6-19.8-134-46.2-52-35.8-88.7-86.1-107-146.6-14-46.6-14-104.7.1-151.2,13.7-45.4,35.2-81.5,68.3-114.4,31-30.9,64-51.3,104.6-64.9,30.4-10.1,50.8-13.3,84-13.5,23.1-.1,30,.5,51.6,4.5,51.2,9.3,100.4,35.4,138.5,73.4,41.7,41.5,67.5,92.4,76.6,150.7,1.8,12,2.2,18.4,2.2,39.8s-.4,27.8-2.2,39.8c-10.5,67.4-45.1,127.6-97.3,169.3-22.3,17.7-51.4,34.3-76.3,43.4-13.7,5.1-37.4,10.9-54.1,13.5-13.5,2-42.9,3.3-55,2.4Zm48.2-12.9c40.5-5.3,72.3-16.7,107.7-38.7,22.2-13.8,52.1-41.7,67.9-63.5,26.9-37.2,41.2-72.2,48.4-118.3,1.3-8.6,1.8-17.4,1.8-35,0-25.1-1.1-35.3-6.1-58-5.4-24.2-16.7-52.3-29.6-73.8-19.7-32.6-50.2-64.4-81.4-84.5A258.68,258.68,0,0,0,459,254.5c-32.9,19.9-67.1,54-86.8,86.7-45.1,74.6-49.5,167.7-11.8,245.5a253.18,253.18,0,0,0,46.9,67c42,43.1,92.6,68.6,152.5,76.8,13.6,1.8,50.1,1.9,63.9,0Z" transform="translate(-324.01 -206.59)"/>
    <path class="cls-1" d="M440.6,643.4A5.39,5.39,0,0,1,439,640c0-4.7,1.7-5,25.6-5H487V535.1c0-111.5-.6-103.1,7.1-103.1,3.2,0,3.9-.4,4.3-2.2,3.3-17,4.8-21,11.7-31.3,5.8-8.6,17.4-20,34.1-33.4,17-13.7,21.3-18.5,35.2-40.1,6.5-10.2,12.4-18.8,13-19.2a7.27,7.27,0,0,1,3.3-.8c2.3,0,2.3,0,21.9,30.5,6.6,10.3,14.6,18.4,32.4,33,26.8,21.9,38.7,38.7,40.7,57.6l.6,5.9h4.3c8,0,7.4-8,7.4,103.7V635h24.8c20.8,0,25.1.2,27,1.6,2.6,1.8,2.8,4.6.6,6.8-1.4,1.4-17,1.6-157.4,1.6s-156-.2-157.4-1.6ZM512,625.5V616H497v19h15Zm156-75V466h-7.5c-9.9,0-10.6-1.1-7.1-11.8,3.3-10.2,4.1-17.6,2.6-24.8-2.3-10.9-9.3-18.9-34.6-39.6-7.3-5.9-15.8-13.6-19-17.2s-6.4-6.6-7-6.6-4.5,3.4-8.5,7.6S573,386.5,565,393c-27.2,22-32.7,29.9-31.7,45.5a65.21,65.21,0,0,0,3.1,15.7c3.7,10.7,3.1,11.8-6.9,11.8H522V635H668V550.5Zm25,75V616H678v19h15ZM512,588.7V571.4h-7.2l-7.3.1-.3,17.3L497,606h15Zm181,.4c0-19.3.6-18.1-9.7-18.1H678v35h15ZM512,555.5v-6.6l-7.2.3-7.3.3-.3,6.3-.3,6.2H512Zm180.8.3-.3-6.3-7.2-.3-7.3-.3V562h15.1ZM512,500.4c0-25.3.4-40.2,1-41.5.9-1.6,2.2-1.9,7.2-1.9h6.1l-.7-3.7c-3.2-17.7-2.7-26.4,2.1-36.3,3.4-6.9,15.6-19.3,31.8-32.2,12.4-9.8,23.2-20.3,28.3-27.3,5.9-8.2,8.8-8.3,14.2-.8,5.8,8.2,14.9,17,30.1,29.3,23.8,19.3,31.7,29.6,34,44.2.8,5.2.7,8.6-.5,15.7-.9,5-1.6,9.6-1.6,10.1s2.4,1,5.3,1,5.9.5,6.7,1c1.3.8,1.5,6.7,1.8,41.5l.3,40.5H693V441h-4.4c-2.5,0-4.8-.6-5.3-1.2s-1.3-5.5-2-10.6c-2.6-20.1-10.2-30.4-42-56.9-17.9-14.9-23-20.8-34.9-39.7-4.4-6.9-8.4-12.5-9-12.6s-5.6,6.9-11.1,15.3-12.1,17.5-14.7,20.4-12.6,11.6-22.2,19.4c-29.2,23.6-36.9,34.8-39,56.3-.4,3.9-1.1,7.7-1.7,8.4s-2.9,1.2-5.3,1.2H497v99h15V500.4Z" transform="translate(-324.01 -206.59)"/>
    <path class="cls-1" d="M556.2,613.7c-.7-.8-1.3-6.7-1.4-13.7l-.3-12.4-5-2c-2.8-1.2-5.6-2.5-6.3-2.9-.9-.6-1.2-10.3-1.2-42.6,0-43.4.1-44.1,4.2-44.1,1,0,11.4,3.2,23.2,7s23.1,7,25.2,7,13.2-3.1,24.9-7c11.5-3.8,22-7,23.2-7a4.36,4.36,0,0,1,3.3,1.9c.6,1.3,1,16.4,1,42.4,0,45.7.6,42.2-8.3,45.3l-4.7,1.6v11.3c0,13.7-.8,16.5-4.9,16.5-1.5,0-10.1-2.7-19-6.1L594,602.8l-16,6.1c-16.4,6.3-20,7.1-21.8,4.8Zm16-12.9c3.2-1.3,5.8-2.7,5.8-3.3,0-1-10.5-5.5-12.8-5.5-.8,0-1.2,1.9-1.2,5.5s.4,5.5,1.2,5.5A41.92,41.92,0,0,0,572.2,600.8Zm51.8-3.3c0-3-.3-5.5-.7-5.5-2.2,0-13.3,4.5-13.3,5.4s10,5.3,12.8,5.5C623.6,603,624,601.3,624,597.5ZM618.4,583c9.9-3.9,18.1-7,18.3-7s.3-15.3.3-34.1V507.8l-3,.7c-1.7.4-10.1,3-18.8,5.9l-15.7,5.3-.3,35.1c-.1,19.4.1,35.2.5,35.2S608.6,586.8,618.4,583Zm-29.6-28.7-.3-34.6L571,513.8c-9.6-3.2-18-5.8-18.7-5.8-1,0-1.3,7.1-1.3,33.9v33.8l16.8,6.6c9.2,3.6,17.7,6.5,19,6.6l2.2.1-.2-34.7Z" transform="translate(-324.01 -206.59)"/>
    <path class="cls-1" d="M591,467.6a31.87,31.87,0,0,1-18.1-10.3c-6.6-7.1-9.2-14.5-8.7-24.8.5-8.1,2.3-13.2,7.2-19.8,2.2-3.1,10.2-8.7,12.2-8.7,2.5,0,4.4,3.2,4.4,7.4,0,12.8,9.5,23.8,21.8,25.3,3.9.4,6.6,0,11.6-1.7,6.4-2.3,6.6-2.3,8.6-.5,2.6,2.3,2.1,6.2-1.5,14.1a33.07,33.07,0,0,1-24.9,19.3,53.72,53.72,0,0,1-6.5,1C596.8,468.9,594,468.3,591,467.6Zm17.1-11c4.1-1.9,8.9-6.2,8.9-7.9,0-.8-2.6-1.7-7.2-2.4a49.52,49.52,0,0,1-12-3.2c-6.8-3.3-14.4-11.1-16.5-17.1-1-2.8-2.4-5-3.1-5-2.1,0-4.5,7.1-4.5,13.5a25.64,25.64,0,0,0,15.8,23C594.3,459.3,603.3,458.9,608.1,456.6Z" transform="translate(-324.01 -206.59)"/>
    <path class="cls-1" d="M442.5,613.3c-7-3.7-10.5-9.4-10.5-17.3,0-11.1,7.9-19,19-19,11.9,0,19.6,8.4,18.8,20.5-.5,7.4-3.6,12.3-9.8,15.5C455.2,615.4,446.8,615.6,442.5,613.3Zm15-10.9a9.07,9.07,0,1,0-13,0c1.8,2,3.4,2.6,6.5,2.6S455.7,604.4,457.5,602.4Z" transform="translate(-324.01 -206.59)"/>
    <path class="cls-1" d="M465.5,364.1c-7.9-3.6-11.5-9.5-11.5-18.5,0-4,.7-6.2,2.9-9.8,10-15.8,35.1-8.8,35.1,9.8a28.74,28.74,0,0,1-1.1,8.1C488.5,360.1,480,366,473,366A22.39,22.39,0,0,1,465.5,364.1Zm12.9-10.2c3.8-3,4.9-6.4,3.6-10.5-1.4-4.3-4.4-6.4-9-6.4a12,12,0,0,0-5.7,1.5c-2.9,2-4.6,7.5-3.4,10.7,1.3,3.5,5.8,6.8,9.1,6.8A11.08,11.08,0,0,0,478.4,353.9Z" transform="translate(-324.01 -206.59)"/>
    <path class="cls-1" d="M722.8,364.7c-16.4-4.6-24.3-23.3-16.3-38.7,3.9-7.5,14.8-14,23.5-14,10.4,0,21.2,7.6,25,17.6,2.5,6.9,2.5,11.9,0,18.7A27,27,0,0,1,722.8,364.7Zm15.3-11a16.59,16.59,0,0,0,0-29.4c-5.6-2.9-10.5-2.9-16.1,0a17.36,17.36,0,0,0-9,14.7,17.66,17.66,0,0,0,9,14.8c5.6,2.8,10.5,2.8,16.1-.1Z" transform="translate(-324.01 -206.59)"/>
  </g>
</svg>
