<?xml version="1.0" encoding="utf-8"?>
<!-- Generator: Adobe Illustrator 23.0.5, SVG Export Plug-In . SVG Version: 6.00 Build 0)  -->
<svg version="1.1" id="Layer_1" xmlns="http://www.w3.org/2000/svg" xmlns:xlink="http://www.w3.org/1999/xlink" x="0px" y="0px"
	 viewBox="0 0 1200 1200" style="enable-background:new 0 0 1200 1200;" xml:space="preserve">
<style type="text/css">
	.st0{fill:#E4C07B;}
</style>
<g>
	<path class="st0" d="M753.8,1068.2c-14.3-2.3-32.5-9.7-37.9-15.7c-2.4-2.7-2.6-3.6-0.9-7.8c1.1-2.6,2.4-5,3-5.3
		c0.6-0.5,5.2,1.7,9.9,4.6c12.8,7.6,23.6,10.5,39.5,10.5c11.6,0,14.9-0.6,21.3-3.6c9.3-4.6,14.4-11.9,14.4-20.1
		c0-12.9-6.2-18.4-28.9-24.8c-40.1-11.6-48-15.7-54.3-28.1c-7-13.7-2.6-34.2,9.1-43.2c16.7-12.8,45.9-15.1,71.1-5.6
		c4.6,1.8,9.6,4.1,11.1,5.2c2.6,1.8,2.6,2.3,0,7.8c-3,6.2-2.6,6.2-17.3,0c-8.7-3.8-11.9-4.3-25.1-4.4c-12.9,0-16.3,0.6-22.3,3.5
		c-17.2,8.5-19.6,26.5-5.3,37.4c3.3,2.6,13.7,6.4,29,10.6c34.7,9.9,43.9,16,48,31.3c5,18.5-5.8,36.9-26,43.9
		C784.2,1067.5,762.5,1069.4,753.8,1068.2L753.8,1068.2z"/>
	<path class="st0" d="M300,996.2v-71.5h8.4h8.4v71.5v71.5h-8.4H300V996.2z"/>
	<path class="st0" d="M389.7,1003v-64.6h-25.1h-25.1v-6.8v-6.8h57.8h57.8v6.8v6.8H430h-25.1v64.6v64.6h-7.6h-7.6V1003z"/>
	<path class="st0" d="M532.6,996.2v-71.5h6.5l6.4,0.2l29.6,50.8c16.3,28,30.4,50.9,31.3,50.9s14.9-23,31.2-50.9l29.3-50.9h6.5h6.5
		v71.5v71.5h-7.6h-7.6V1015c0-45.8-0.3-52.4-2.3-52c-1.2,0.3-13.4,19.6-27.1,43c-23.1,39.5-25.1,42.6-29.3,42.9
		c-4.3,0.5-5.2-0.8-29.5-42.9c-13.8-23.7-26-43.3-26.9-43.3c-1.5,0-2,11.6-2,52.4v52.4h-7.6h-7.6L532.6,996.2L532.6,996.2z"/>
	<path class="st0" d="M829.8,1065c0.5-1.5,15.1-33.7,32.4-71.6l31.5-68.9l8.2,0.5l8.2,0.5l32.2,70.7l32.2,70.7l-6.8,0.5
		c-3.6,0.3-7.6,0.2-8.7-0.2c-0.9-0.5-5.5-9.1-9.9-19.2l-8.2-18.4l-39.5,0.3l-39.5,0.5l-8.4,18.7l-8.4,18.5H837
		C829.8,1067.6,828.9,1067.3,829.8,1065L829.8,1065z M932.4,1013.3c0-4.6-28.6-66.6-30.7-67c-1.5-0.3-6.8,10.2-16.9,32.7
		c-8.1,18.2-14.7,34.1-14.7,35.1c0,1.4,7.3,1.8,31.2,1.8C930,1015.9,932.4,1015.8,932.4,1013.3z"/>
	<path class="st0" d="M239.5,995.8l0.5-70.4l7.3-0.5l7.1-0.5v70.7v70.8h-7.6h-7.6L239.5,995.8z"/>
	<path class="st0" d="M566.8,844.7c-74.6-5.6-145.3-30.1-203.7-70.2C284,720.1,228.3,643.6,200.4,551.6
		c-21.3-70.8-21.3-159.2,0.2-229.9c20.8-69,53.5-123.9,103.8-173.9c47.1-47,97.3-78,159-98.7c46.2-15.4,77.2-20.2,127.7-20.5
		c35.1-0.2,45.6,0.8,78.4,6.8c77.8,14.1,152.6,53.8,210.6,111.6c63.4,63.1,102.6,140.5,116.5,229.1c2.7,18.2,3.3,28,3.3,60.5
		s-0.6,42.3-3.3,60.5c-16,102.5-68.6,194-147.9,257.4c-33.9,26.9-78.1,52.1-116,66c-20.8,7.8-56.9,16.6-82.2,20.5
		C629.9,844.1,585.2,846.1,566.8,844.7L566.8,844.7z M640.1,825.1c61.6-8.1,109.9-25.4,163.7-58.8c33.7-21,79.2-63.4,103.2-96.5
		c40.9-56.6,62.6-109.8,73.6-179.8c2-13.1,2.7-26.5,2.7-53.2c0-38.2-1.7-53.7-9.3-88.2c-8.2-36.8-25.4-79.5-45-112.2
		c-29.9-49.6-76.3-97.9-123.7-128.5c-125.6-81.2-287.5-83.6-415.6-6.4c-50,30.3-102,82.1-132,131.8
		c-68.6,113.4-75.3,254.9-17.9,373.2c19.2,39.1,41.7,71.3,71.3,101.9c63.9,65.5,140.8,104.3,231.8,116.8
		C563.6,827.9,619.1,828,640.1,825.1L640.1,825.1z"/>
	<path class="st0" d="M361.7,692.7c-1.4-1.2-2.4-3.6-2.4-5.2c0-7.1,2.6-7.6,38.9-7.6h34.1V528.1c0-169.5-0.9-156.7,10.8-156.7
		c4.9,0,5.9-0.6,6.5-3.3c5-25.8,7.3-31.9,17.8-47.6c8.8-13.1,26.5-30.4,51.8-50.8c25.8-20.8,32.4-28.1,53.5-61
		c9.9-15.5,18.9-28.6,19.8-29.2c0.9-0.6,3.2-1.2,5-1.2c3.5,0,3.5,0,33.3,46.4c10,15.7,22.2,28,49.3,50.2
		c40.7,33.3,58.8,58.8,61.9,87.6l0.9,9h6.5c12.2,0,11.2-12.2,11.2,157.6v151h37.7c31.6,0,38.2,0.3,41,2.4c4,2.7,4.3,7,0.9,10.3
		c-2.1,2.1-25.8,2.4-239.3,2.4S363.9,694.8,361.7,692.7L361.7,692.7z M470.3,665.5v-14.4h-11.4h-11.4v14.4v14.4h11.4h11.4V665.5z
		 M707.4,551.5V423H696c-15.1,0-16.1-1.7-10.8-17.9c5-15.5,6.2-26.8,4-37.7c-3.5-16.6-14.1-28.7-52.6-60.2
		c-11.1-9-24-20.7-28.9-26.1c-5-5.5-9.7-10-10.6-10c-1.1,0-6.8,5.2-12.9,11.6c-6.2,6.4-21.1,19.6-33.3,29.5
		c-41.4,33.4-49.7,45.5-48.2,69.2c0.5,7.6,2.3,16.6,4.7,23.9c5.6,16.3,4.7,17.9-10.5,17.9h-11.4v128.5v128.5h111h111L707.4,551.5
		L707.4,551.5z M745.4,665.5v-14.4H734h-11.4v14.4v14.4H734h11.4V665.5z M470.3,609.6v-26.3h-10.9l-11.1,0.2l-0.5,26.3l-0.3,26.1
		h11.4h11.4V609.6z M745.4,610.2c0-29.3,0.9-27.5-14.7-27.5h-8.1v26.6v26.6H734h11.4V610.2z M470.3,559.1v-10l-10.9,0.5l-11.1,0.5
		l-0.5,9.6l-0.5,9.4h11.6h11.4V559.1z M745.1,559.5l-0.5-9.6l-10.9-0.5l-11.1-0.5v10v9.9H734h11.6L745.1,559.5z M470.3,475.3
		c0-38.5,0.6-61.1,1.5-63.1c1.4-2.4,3.3-2.9,10.9-2.9h9.3l-1.1-5.6c-4.9-26.9-4.1-40.1,3.2-55.2c5.2-10.5,23.7-29.3,48.3-49
		c18.9-14.9,35.3-30.9,43-41.5c9-12.5,13.4-12.6,21.6-1.2c8.8,12.5,22.7,25.8,45.8,44.5c36.2,29.3,48.2,45,51.7,67.2
		c1.2,7.9,1.1,13.1-0.8,23.9c-1.4,7.6-2.4,14.6-2.4,15.4c0,0.9,3.6,1.5,8.1,1.5c4.3,0,9,0.8,10.2,1.5c2,1.2,2.3,10.2,2.7,63.1
		l0.5,61.6H734h11.4v-75.3V385h-6.7c-3.8,0-7.3-0.9-8.1-1.8c-0.6-1.1-2-8.4-3-16.1c-4-30.6-15.5-46.2-63.9-86.5
		c-27.2-22.7-35-31.6-53.1-60.4c-6.7-10.5-12.8-19-13.7-19.2c-0.9,0-8.5,10.5-16.9,23.3c-8.4,12.6-18.4,26.6-22.3,31
		c-4,4.3-19.2,17.6-33.7,29.5c-44.4,35.9-56.1,52.9-59.3,85.6c-0.6,5.9-1.7,11.7-2.6,12.8c-0.8,0.9-4.4,1.8-8.1,1.8h-6.7v75.3v75.3
		h11.4h11.4L470.3,475.3L470.3,475.3z"/>
	<path class="st0" d="M537.5,647.6c-1.1-1.2-2-10.2-2.1-20.8l-0.5-18.9l-7.6-3c-4.3-1.8-8.5-3.8-9.6-4.4c-1.4-0.9-1.8-15.7-1.8-64.8
		c0-66,0.2-67,6.4-67c1.5,0,17.3,4.9,35.3,10.6c17.8,5.9,35.1,10.6,38.3,10.6c3.3,0,20.1-4.7,37.9-10.6
		c17.5-5.8,33.4-10.6,35.3-10.6c1.8,0,4.1,1.4,5,2.9c0.9,2,1.5,24.9,1.5,64.5c0,69.5,0.9,64.2-12.6,68.9l-7.1,2.4v17.2
		c0,20.8-1.2,25.1-7.4,25.1c-2.3,0-15.4-4.1-28.9-9.3l-24.5-9.3l-24.3,9.3C545.7,649.8,540.2,651.1,537.5,647.6L537.5,647.6z
		 M561.8,627.9c4.9-2,8.8-4.1,8.8-5c0-1.5-16-8.4-19.5-8.4c-1.2,0-1.8,2.9-1.8,8.4s0.6,8.4,1.8,8.4
		C552.2,631.3,556.9,629.8,561.8,627.9z M640.5,622.9c0-4.6-0.5-8.4-1.1-8.4c-3.3,0-20.2,6.8-20.2,8.2c0,1.5,15.2,8.1,19.5,8.4
		C639.9,631.3,640.5,628.7,640.5,622.9z M632,600.9c15.1-5.9,27.5-10.6,27.8-10.6s0.5-23.3,0.5-51.8v-51.8l-4.6,1.1
		c-2.6,0.6-15.4,4.6-28.6,9l-23.9,8.1l-0.5,53.4c-0.2,29.5,0.2,53.5,0.8,53.5C604.4,611.5,617.1,606.7,632,600.9z M587,557.3
		l-0.5-52.6l-26.6-9c-14.6-4.9-27.4-8.8-28.4-8.8c-1.5,0-2,10.8-2,51.5v51.4l25.5,10c14,5.5,26.9,9.9,28.9,10l3.3,0.2L587,557.3
		L587,557.3z"/>
	<path class="st0" d="M590.4,425.5c-11.7-2.6-19.5-7-27.5-15.7c-10-10.8-14-22-13.2-37.7c0.8-12.3,3.5-20.1,10.9-30.1
		c3.3-4.7,15.5-13.2,18.5-13.2c3.8,0,6.7,4.9,6.7,11.2c0,19.5,14.4,36.2,33.1,38.5c5.9,0.6,10,0,17.6-2.6c9.7-3.5,10-3.5,13.1-0.8
		c4,3.5,3.2,9.4-2.3,21.4c-7,15.7-20.5,26.1-37.9,29.3c-5,0.9-9.4,1.7-9.9,1.5C599.2,427.4,594.9,426.5,590.4,425.5z M616.4,408.7
		c6.2-2.9,13.5-9.4,13.5-12c0-1.2-4-2.6-10.9-3.6c-6.1-0.8-14.3-3-18.2-4.9c-10.3-5-21.9-16.9-25.1-26c-1.5-4.3-3.6-7.6-4.7-7.6
		c-3.2,0-6.8,10.8-6.8,20.5c0,14.7,10.2,29.6,24,35C595.4,412.8,609.1,412.2,616.4,408.7z"/>
	<path class="st0" d="M364.6,647c-10.6-5.6-16-14.3-16-26.3c0-16.9,12-28.9,28.9-28.9c18.1,0,29.8,12.8,28.6,31.2
		c-0.8,11.2-5.5,18.7-14.9,23.6C383.9,650.1,371.2,650.4,364.6,647z M387.4,630.4c8.5-9.1,2.4-23.4-9.9-23.4s-18.4,14.3-9.9,23.4
		c2.7,3,5.2,4,9.9,4S384.7,633.4,387.4,630.4z"/>
	<path class="st0" d="M399.6,268.1c-12-5.5-17.5-14.4-17.5-28.1c0-6.1,1.1-9.4,4.4-14.9c15.2-24,53.4-13.4,53.4,14.9
		c0,4.4-0.8,9.9-1.7,12.3C434.5,262,421.6,271,411,271C408.1,271,402.9,269.6,399.6,268.1z M419.2,252.6c5.8-4.6,7.4-9.7,5.5-16
		c-2.1-6.5-6.7-9.7-13.7-9.7c-3,0-6.8,1.1-8.7,2.3c-4.4,3-7,11.4-5.2,16.3c2,5.3,8.8,10.3,13.8,10.3
		C413.3,255.8,416.9,254.3,419.2,252.6z"/>
	<path class="st0" d="M790.7,269c-24.9-7-36.9-35.4-24.8-58.8c5.9-11.4,22.5-21.3,35.7-21.3c15.8,0,32.2,11.6,38,26.8
		c3.8,10.5,3.8,18.1,0,28.4C832.4,263.7,810.8,274.5,790.7,269z M814,252.3c7.8-4,13.5-13.5,13.5-22.3c0-8.8-5.8-18.4-13.5-22.3
		c-8.5-4.4-16-4.4-24.5,0c-7.9,4-13.7,13.5-13.7,22.3c0,8.8,5.8,18.4,13.7,22.5C798,256.7,805.5,256.7,814,252.3L814,252.3z"/>
</g>
</svg>
